<svg xmlns="http://www.w3.org/2000/svg" version="1.0" preserveAspectRatio="xMidYMid meet" viewBox="86 137.1 337.91 165.96">

<g transform="translate(0.000000,500.000000) scale(0.100000,-0.100000)" fill="white" stroke="none">
<path d="M2426 3614 c-197 -48 -352 -196 -422 -404 -26 -77 -24 -242 3 -327 59 -181 195 -323 366 -383 86 -31 240 -38 326 -16 201 51 360 201 422 396 25 78 29 218 10 300 -35 148 -141 294 -270 370 -122 73 -295 98 -435 64z m303 -39 c231 -73 383 -281 384 -524 0 -179 -76 -332 -220 -439 -219 -165 -515 -145 -713 47 -221 215 -222 564 -1 781 111 109 228 158 383 159 67 1 106 -5 167 -24z"/>
<path d="M2522 3358 c-34 -34 -16 -38 168 -38 141 0 180 3 180 13 0 32 -24 37 -180 37 -108 0 -160 -4 -168 -12z m158 -13 c0 -8 -7 -15 -15 -15 -8 0 -15 7 -15 15 0 8 7 15 15 15 8 0 15 -7 15 -15z m71 0 c0 -5 -12 -11 -26 -13 -18 -2 -25 1 -25 13 0 12 7 15 25 13 14 -2 26 -7 26 -13z"/>
<path d="M2510 3273 c0 -17 13 -18 160 -15 l160 3 2 -193 c3 -192 3 -193 21 -156 14 31 17 66 17 208 l0 170 -180 0 c-165 0 -180 -1 -180 -17z"/>
<path d="M2190 3050 l0 -180 119 0 c66 0 131 -4 145 -10 l26 -10 0 168 c0 223 8 212 -161 212 l-129 0 0 -180z m48 122 c2 -7 -3 -12 -12 -12 -9 0 -16 7 -16 16 0 17 22 14 28 -4z m192 3 c0 -12 -16 -15 -85 -15 -69 0 -85 3 -85 15 0 12 16 15 85 15 69 0 85 -3 85 -15z m-190 -50 c0 -8 -7 -15 -15 -15 -8 0 -15 7 -15 15 0 8 7 15 15 15 8 0 15 -7 15 -15z m190 0 c0 -12 -16 -15 -85 -15 -69 0 -85 3 -85 15 0 12 16 15 85 15 69 0 85 -3 85 -15z m-190 -50 c0 -8 -7 -15 -15 -15 -8 0 -15 7 -15 15 0 8 7 15 15 15 8 0 15 -7 15 -15z m190 0 c0 -12 -16 -15 -85 -15 -69 0 -85 3 -85 15 0 12 16 15 85 15 69 0 85 -3 85 -15z m-190 -50 c0 -8 -7 -15 -15 -15 -8 0 -15 7 -15 15 0 8 7 15 15 15 8 0 15 -7 15 -15z m190 0 c0 -12 -16 -15 -85 -15 -69 0 -85 3 -85 15 0 12 16 15 85 15 69 0 85 -3 85 -15z m-192 -47 c-6 -18 -28 -21 -28 -4 0 9 7 16 16 16 9 0 14 -5 12 -12z m192 -3 c0 -12 -16 -15 -85 -15 -69 0 -85 3 -85 15 0 12 16 15 85 15 69 0 85 -3 85 -15z m-192 -47 c-6 -18 -28 -21 -28 -4 0 9 7 16 16 16 9 0 14 -5 12 -12z m192 -3 c0 -12 -16 -15 -85 -15 -69 0 -85 3 -85 15 0 12 16 15 85 15 69 0 85 -3 85 -15z"/>
<path d="M2527 3212 c-15 -16 -17 -45 -17 -191 0 -167 1 -171 19 -161 11 5 50 10 88 10 52 0 74 5 93 20 l25 20 -67 0 c-54 0 -68 3 -68 15 0 12 16 15 84 15 47 0 88 5 91 10 4 6 -27 10 -84 10 -74 0 -91 3 -91 15 0 12 17 15 90 15 65 0 90 -3 90 -12 0 -9 4 -8 10 2 5 8 10 68 10 133 l0 117 -128 0 c-112 0 -131 -2 -145 -18z m53 -37 c0 -8 -7 -15 -15 -15 -8 0 -15 7 -15 15 0 8 7 15 15 15 8 0 15 -7 15 -15z m200 0 c0 -12 -17 -15 -90 -15 -73 0 -90 3 -90 15 0 12 17 15 90 15 73 0 90 -3 90 -15z m-200 -50 c0 -8 -7 -15 -15 -15 -8 0 -15 7 -15 15 0 8 7 15 15 15 8 0 15 -7 15 -15z m200 0 c0 -12 -17 -15 -90 -15 -73 0 -90 3 -90 15 0 12 17 15 90 15 73 0 90 -3 90 -15z m-200 -50 c0 -8 -7 -15 -15 -15 -8 0 -15 7 -15 15 0 8 7 15 15 15 8 0 15 -7 15 -15z m200 0 c0 -12 -17 -15 -90 -15 -73 0 -90 3 -90 15 0 12 17 15 90 15 73 0 90 -3 90 -15z m-200 -50 c0 -8 -7 -15 -15 -15 -8 0 -15 7 -15 15 0 8 7 15 15 15 8 0 15 -7 15 -15z m200 0 c0 -12 -17 -15 -90 -15 -73 0 -90 3 -90 15 0 12 17 15 90 15 73 0 90 -3 90 -15z m-200 -50 c0 -8 -7 -15 -15 -15 -8 0 -15 7 -15 15 0 8 7 15 15 15 8 0 15 -7 15 -15z m0 -50 c0 -8 -7 -15 -15 -15 -8 0 -15 7 -15 15 0 8 7 15 15 15 8 0 15 -7 15 -15z"/>
<path d="M2530 2820 c-11 -11 -20 -24 -20 -30 0 -6 40 -10 100 -10 81 0 109 4 140 20 69 35 59 40 -74 40 -113 0 -128 -2 -146 -20z"/>
<path d="M2510 2727 c0 -37 19 -47 93 -47 61 0 68 2 57 15 -7 8 -10 24 -7 35 5 19 0 20 -69 20 -71 0 -74 -1 -74 -23z"/>
<path d="M2727 2730 c3 -11 0 -27 -7 -35 -11 -13 -4 -15 57 -15 74 0 93 10 93 47 0 22 -3 23 -74 23 -69 0 -74 -1 -69 -20z"/>
<path d="M1905 2805 c17 -48 17 -58 -3 -85 -18 -24 -19 -29 -6 -34 23 -9 24 -8 24 15 0 11 5 29 11 40 8 16 6 27 -11 52 -12 18 -19 23 -15 12z"/>
<path d="M3204 2796 c-10 -26 4 -48 28 -44 17 2 23 10 23 28 0 18 -6 26 -23 28 -13 2 -25 -3 -28 -12z"/>
<path d="M3380 2755 c-18 -21 -5 -47 22 -43 26 3 37 36 16 49 -18 12 -24 11 -38 -6z"/>
<path d="M1847 2754 c-14 -15 -6 -24 21 -24 22 0 24 -2 12 -11 -13 -9 -13 -10 0 -6 23 6 19 41 -5 45 -12 2 -24 0 -28 -4z"/>
<path d="M1652 2738 c-18 -18 -15 -28 11 -29 21 0 21 -1 2 -9 -15 -6 -11 -7 17 -7 21 1 34 3 30 6 -4 4 -12 15 -18 25 -13 25 -27 29 -42 14z"/>
<path d="M3337 2730 c-14 -17 -15 -20 -2 -20 9 0 18 7 22 15 9 24 -1 27 -20 5z"/>
<path d="M1818 2717 c-6 -32 4 -43 22 -22 8 9 8 15 2 15 -6 0 -12 8 -14 18 -3 12 -6 8 -10 -11z"/>
<path d="M3161 2709 c-19 -31 -18 -57 3 -71 18 -13 38 -9 33 6 -4 10 5 16 29 20 19 4 34 12 34 18 0 6 -10 8 -25 4 -23 -6 -26 -4 -23 21 4 41 -27 42 -51 2z m49 13 c0 -4 -9 -8 -19 -8 -11 0 -17 4 -15 8 3 4 12 8 20 8 8 0 14 -4 14 -8z m-23 -44 c-3 -8 -6 -5 -6 6 -1 11 2 17 5 13 3 -3 4 -12 1 -19z"/>
<path d="M1964 2695 c-16 -31 -17 -37 -4 -45 8 -5 19 -5 26 0 6 6 13 8 16 5 3 -3 5 11 4 31 -1 49 -18 53 -42 9z"/>
<path d="M1615 2687 c3 -10 5 -23 5 -28 0 -12 27 -12 35 1 3 5 0 7 -8 4 -8 -3 -19 5 -26 18 -6 13 -9 15 -6 5z"/>
<path d="M3305 2690 c-3 -5 -1 -10 6 -10 8 0 8 -4 -1 -15 -15 -18 -5 -65 14 -65 21 0 26 -50 9 -77 -14 -21 -14 -23 1 -23 8 0 25 14 38 30 12 17 30 30 40 30 27 0 22 12 -17 43 -19 15 -35 33 -35 39 0 6 9 -1 21 -16 11 -14 25 -26 31 -26 7 0 1 11 -11 24 -17 18 -22 32 -17 50 6 25 4 26 -33 26 -22 0 -43 -4 -46 -10z"/>
<path d="M1862 2665 c2 -15 -4 -29 -15 -37 -15 -11 -16 -18 -6 -46 13 -38 35 -37 31 1 -2 19 1 27 12 27 10 0 13 -6 10 -15 -9 -22 45 -100 58 -87 7 7 4 19 -10 39 -16 22 -19 38 -15 76 5 43 4 47 -15 47 -12 0 -24 5 -27 10 -12 19 -26 10 -23 -15z"/>
<path d="M1670 2661 c-5 -11 -10 -27 -10 -36 0 -9 -5 -26 -12 -38 -13 -24 -14 -28 -24 -69 -4 -17 -2 -28 4 -28 13 0 26 36 18 49 -3 4 15 11 39 13 25 3 52 11 60 18 14 12 12 17 -15 45 -16 17 -30 39 -30 48 0 23 -17 22 -30 -2z"/>
<path d="M1723 2669 c9 -6 15 -14 12 -20 -3 -5 -1 -17 5 -26 10 -16 11 -15 6 5 -4 19 -2 21 10 11 8 -6 14 -7 14 -2 0 14 -34 43 -51 43 -10 -1 -9 -4 4 -11z"/>
<path d="M3115 2623 c-3 -9 -4 -17 -3 -18 2 -1 12 -7 23 -13 19 -11 19 -11 1 -12 -11 0 -17 -3 -13 -6 12 -12 65 8 76 29 l11 22 -6 -22 c-3 -13 -1 -23 4 -23 5 0 12 -18 16 -40 4 -26 11 -40 21 -40 12 0 14 9 9 43 -7 42 -40 91 -55 81 -5 -3 -24 -1 -43 4 -28 8 -36 7 -41 -5z"/>
<path d="M3190 2562 c0 -4 -10 -12 -22 -17 -25 -11 -37 -45 -17 -45 12 0 30 20 50 53 6 11 6 17 -1 17 -5 0 -10 -3 -10 -8z"/>
<path d="M1736 2551 c-3 -5 5 -16 19 -25 24 -16 45 -6 22 11 -24 19 -36 23 -41 14z"/>
<path d="M3400 2525 c0 -14 5 -25 10 -25 6 0 10 11 10 25 0 14 -4 25 -10 25 -5 0 -10 -11 -10 -25z"/>
<path d="M2065 2341 c-49 -21 -72 -74 -55 -126 13 -38 38 -56 108 -74 34 -10 42 -16 42 -35 0 -42 -45 -48 -88 -11 -34 29 -59 25 -68 -11 -15 -59 90 -105 169 -75 45 17 67 51 67 101 0 58 -17 75 -97 99 -63 19 -79 42 -42 61 17 10 28 8 56 -7 34 -18 35 -18 49 1 19 27 18 40 -6 61 -22 20 -104 30 -135 16z"/>
<path d="M2335 2338 c-35 -19 -55 -52 -55 -90 0 -49 31 -82 98 -103 57 -18 72 -36 52 -60 -18 -21 -41 -19 -79 10 -27 19 -38 22 -53 14 -33 -18 -33 -39 0 -72 43 -43 121 -50 172 -15 75 51 62 156 -22 178 -72 20 -88 29 -88 49 0 28 34 35 70 14 29 -17 31 -17 51 4 28 27 19 50 -26 68 -41 18 -92 19 -120 3z"/>
<path d="M860 2175 l0 -165 24 -6 c41 -10 46 2 46 97 0 51 4 89 9 87 5 -1 42 -45 81 -96 62 -81 76 -93 99 -90 l26 3 3 168 2 167 -35 0 -35 0 0 -95 c0 -52 -3 -95 -7 -95 -5 0 -39 43 -78 95 -63 87 -72 95 -102 95 l-33 0 0 -165z"/>
<path d="M1321 2323 c-45 -22 -89 -85 -96 -137 -7 -46 19 -131 38 -119 6 4 7 1 2 -6 -11 -20 33 -59 87 -77 66 -21 123 -12 171 27 49 41 70 82 70 144 1 62 -25 118 -71 153 -45 34 -148 42 -201 15z m169 -121 l35 -15 -27 -10 c-22 -8 -28 -18 -28 -39 0 -34 -37 -53 -87 -43 -41 7 -49 4 -46 -17 2 -12 -4 -18 -17 -18 -16 0 -19 6 -16 33 2 17 4 43 5 57 1 27 17 17 23 -15 3 -14 6 -11 9 13 4 20 1 32 -5 31 -62 -7 -58 13 7 33 55 18 90 15 147 -10z"/>
<path d="M1373 2148 c16 -10 59 -10 75 0 7 5 -8 8 -37 8 -27 -1 -44 -4 -38 -8z"/>
<path d="M1676 2324 c-10 -26 -7 -166 5 -209 6 -22 28 -56 49 -77 33 -34 43 -38 86 -38 58 0 106 26 134 72 17 28 20 51 20 151 l0 117 -35 0 -35 0 0 -92 c0 -120 -18 -162 -71 -166 -60 -5 -73 20 -77 149 l-4 109 -33 0 c-21 0 -35 -6 -39 -16z"/>
<path d="M2560 2176 c0 -143 2 -165 16 -170 39 -15 64 13 64 72 0 19 5 22 35 22 32 0 37 -4 58 -47 24 -52 42 -61 72 -39 19 14 19 15 1 65 -17 48 -17 54 -2 85 20 43 20 79 1 116 -24 46 -62 60 -160 60 l-85 0 0 -164z m148 88 c26 -8 39 -48 22 -69 -7 -9 -29 -15 -51 -15 l-39 0 0 45 c0 40 2 45 23 45 12 0 32 -3 45 -6z"/>
<path d="M2989 2320 c-80 -42 -120 -126 -99 -207 15 -61 35 -89 85 -118 88 -52 205 -22 254 65 23 42 28 120 10 167 -35 93 -162 140 -250 93z m153 -102 c10 -9 17 -36 21 -80 l5 -68 -99 0 c-90 0 -125 9 -99 25 5 3 10 30 10 60 0 41 4 56 18 64 24 15 125 13 144 -1z"/>
<path d="M3336 2324 c-3 -9 -6 -80 -6 -159 0 -156 6 -173 55 -161 24 6 25 9 25 96 0 50 3 90 8 90 4 -1 36 -41 72 -90 67 -92 85 -106 120 -95 20 6 20 13 18 168 l-3 162 -32 3 c-38 4 -42 -5 -45 -116 l-3 -73 -70 95 c-62 85 -73 95 -101 96 -20 0 -34 -6 -38 -16z"/>
<path d="M3676 2324 c-3 -9 -6 -78 -6 -154 0 -113 3 -142 16 -154 17 -18 24 -19 48 -10 11 4 16 19 16 50 l0 44 48 0 c87 0 151 67 137 143 -7 37 -20 56 -55 80 -34 24 -195 25 -204 1z m162 -70 c46 -32 21 -74 -45 -74 l-43 0 0 38 c0 21 3 42 7 45 12 12 58 7 81 -9z"/>
<path d="M3977 2333 c-13 -12 -8 -308 5 -321 8 -8 50 -12 124 -12 123 0 142 8 130 55 -6 24 -9 25 -96 25 -89 0 -90 0 -90 25 0 23 3 25 53 25 71 0 82 9 78 63 -1 14 -11 17 -67 17 l-65 0 3 28 c3 27 3 27 90 30 83 3 88 4 94 27 3 13 3 29 -1 34 -7 12 -247 16 -258 4z"/>
</g>
</svg>