<?xml version="1.0" encoding="UTF-8"?>
<svg xmlns="http://www.w3.org/2000/svg" xmlns:xlink="http://www.w3.org/1999/xlink" width="800px" height="800px" viewBox="0 0 800 800" version="1.1">
<g id="surface1">
<path style=" stroke:none;fill-rule:nonzero;fill:rgb(0%,48.235294%,100%);fill-opacity:1;" d="M 388.160156 221.761719 C 356.640625 229.441406 331.839844 253.121094 320.640625 286.398438 C 316.480469 298.71875 316.800781 325.121094 321.121094 338.71875 C 330.558594 367.679688 352.320312 390.398438 379.679688 400 C 393.441406 404.960938 418.078125 406.078125 431.839844 402.558594 C 464 394.398438 489.441406 370.398438 499.359375 339.199219 C 503.359375 326.71875 504 304.320312 500.960938 291.199219 C 495.359375 267.519531 478.398438 244.160156 457.761719 232 C 438.238281 220.320312 410.558594 216.320312 388.160156 221.761719 Z M 436.640625 228 C 473.601562 239.679688 497.921875 272.960938 498.078125 311.839844 C 498.078125 340.480469 485.921875 364.960938 462.878906 382.078125 C 427.839844 408.480469 380.480469 405.28125 348.800781 374.558594 C 313.441406 340.160156 313.28125 284.320312 348.640625 249.601562 C 366.398438 232.160156 385.121094 224.320312 409.921875 224.160156 C 420.640625 224 426.878906 224.960938 436.640625 228 Z M 436.640625 228 "/>
<path style=" stroke:none;fill-rule:nonzero;fill:rgb(0%,48.235294%,100%);fill-opacity:1;" d="M 403.519531 262.71875 C 398.078125 268.160156 400.960938 268.800781 430.398438 268.800781 C 452.960938 268.800781 459.199219 268.320312 459.199219 266.71875 C 459.199219 261.601562 455.359375 260.800781 430.398438 260.800781 C 413.121094 260.800781 404.800781 261.441406 403.519531 262.71875 Z M 428.800781 264.800781 C 428.800781 266.078125 427.679688 267.199219 426.398438 267.199219 C 425.121094 267.199219 424 266.078125 424 264.800781 C 424 263.519531 425.121094 262.398438 426.398438 262.398438 C 427.679688 262.398438 428.800781 263.519531 428.800781 264.800781 Z M 440.160156 264.800781 C 440.160156 265.601562 438.238281 266.558594 436 266.878906 C 433.121094 267.199219 432 266.71875 432 264.800781 C 432 262.878906 433.121094 262.398438 436 262.71875 C 438.238281 263.039062 440.160156 263.839844 440.160156 264.800781 Z M 440.160156 264.800781 "/>
<path style=" stroke:none;fill-rule:nonzero;fill:rgb(0%,48.235294%,100%);fill-opacity:1;" d="M 401.601562 276.320312 C 401.601562 279.039062 403.679688 279.199219 427.199219 278.71875 L 452.800781 278.238281 L 453.121094 309.121094 C 453.601562 339.839844 453.601562 340 456.480469 334.078125 C 458.71875 329.121094 459.199219 323.519531 459.199219 300.800781 L 459.199219 273.601562 L 430.398438 273.601562 C 404 273.601562 401.601562 273.761719 401.601562 276.320312 Z M 401.601562 276.320312 "/>
<path style=" stroke:none;fill-rule:nonzero;fill:rgb(0%,48.235294%,100%);fill-opacity:1;" d="M 350.398438 312 L 350.398438 340.800781 L 369.441406 340.800781 C 380 340.800781 390.398438 341.441406 392.640625 342.398438 L 396.800781 344 L 396.800781 317.121094 C 396.800781 281.441406 398.078125 283.199219 371.039062 283.199219 L 350.398438 283.199219 Z M 358.078125 292.480469 C 358.398438 293.601562 357.601562 294.398438 356.160156 294.398438 C 354.71875 294.398438 353.601562 293.28125 353.601562 291.839844 C 353.601562 289.121094 357.121094 289.601562 358.078125 292.480469 Z M 388.800781 292 C 388.800781 293.921875 386.238281 294.398438 375.199219 294.398438 C 364.160156 294.398438 361.601562 293.921875 361.601562 292 C 361.601562 290.078125 364.160156 289.601562 375.199219 289.601562 C 386.238281 289.601562 388.800781 290.078125 388.800781 292 Z M 358.398438 300 C 358.398438 301.28125 357.28125 302.398438 356 302.398438 C 354.71875 302.398438 353.601562 301.28125 353.601562 300 C 353.601562 298.71875 354.71875 297.601562 356 297.601562 C 357.28125 297.601562 358.398438 298.71875 358.398438 300 Z M 388.800781 300 C 388.800781 301.921875 386.238281 302.398438 375.199219 302.398438 C 364.160156 302.398438 361.601562 301.921875 361.601562 300 C 361.601562 298.078125 364.160156 297.601562 375.199219 297.601562 C 386.238281 297.601562 388.800781 298.078125 388.800781 300 Z M 358.398438 308 C 358.398438 309.28125 357.28125 310.398438 356 310.398438 C 354.71875 310.398438 353.601562 309.28125 353.601562 308 C 353.601562 306.71875 354.71875 305.601562 356 305.601562 C 357.28125 305.601562 358.398438 306.71875 358.398438 308 Z M 388.800781 308 C 388.800781 309.921875 386.238281 310.398438 375.199219 310.398438 C 364.160156 310.398438 361.601562 309.921875 361.601562 308 C 361.601562 306.078125 364.160156 305.601562 375.199219 305.601562 C 386.238281 305.601562 388.800781 306.078125 388.800781 308 Z M 358.398438 316 C 358.398438 317.28125 357.28125 318.398438 356 318.398438 C 354.71875 318.398438 353.601562 317.28125 353.601562 316 C 353.601562 314.71875 354.71875 313.601562 356 313.601562 C 357.28125 313.601562 358.398438 314.71875 358.398438 316 Z M 388.800781 316 C 388.800781 317.921875 386.238281 318.398438 375.199219 318.398438 C 364.160156 318.398438 361.601562 317.921875 361.601562 316 C 361.601562 314.078125 364.160156 313.601562 375.199219 313.601562 C 386.238281 313.601562 388.800781 314.078125 388.800781 316 Z M 358.078125 323.519531 C 357.121094 326.398438 353.601562 326.878906 353.601562 324.160156 C 353.601562 322.71875 354.71875 321.601562 356.160156 321.601562 C 357.601562 321.601562 358.398438 322.398438 358.078125 323.519531 Z M 388.800781 324 C 388.800781 325.921875 386.238281 326.398438 375.199219 326.398438 C 364.160156 326.398438 361.601562 325.921875 361.601562 324 C 361.601562 322.078125 364.160156 321.601562 375.199219 321.601562 C 386.238281 321.601562 388.800781 322.078125 388.800781 324 Z M 358.078125 331.519531 C 357.121094 334.398438 353.601562 334.878906 353.601562 332.160156 C 353.601562 330.71875 354.71875 329.601562 356.160156 329.601562 C 357.601562 329.601562 358.398438 330.398438 358.078125 331.519531 Z M 388.800781 332 C 388.800781 333.921875 386.238281 334.398438 375.199219 334.398438 C 364.160156 334.398438 361.601562 333.921875 361.601562 332 C 361.601562 330.078125 364.160156 329.601562 375.199219 329.601562 C 386.238281 329.601562 388.800781 330.078125 388.800781 332 Z M 388.800781 332 "/>
<path style=" stroke:none;fill-rule:nonzero;fill:rgb(0%,48.235294%,100%);fill-opacity:1;" d="M 404.320312 286.078125 C 401.921875 288.640625 401.601562 293.28125 401.601562 316.640625 C 401.601562 343.359375 401.761719 344 404.640625 342.398438 C 406.398438 341.601562 412.640625 340.800781 418.71875 340.800781 C 427.039062 340.800781 430.558594 340 433.601562 337.601562 L 437.601562 334.398438 L 426.878906 334.398438 C 418.238281 334.398438 416 333.921875 416 332 C 416 330.078125 418.558594 329.601562 429.441406 329.601562 C 436.960938 329.601562 443.519531 328.800781 444 328 C 444.640625 327.039062 439.679688 326.398438 430.558594 326.398438 C 418.71875 326.398438 416 325.921875 416 324 C 416 322.078125 418.71875 321.601562 430.398438 321.601562 C 440.800781 321.601562 444.800781 322.078125 444.800781 323.519531 C 444.800781 324.960938 445.441406 324.800781 446.398438 323.199219 C 447.199219 321.921875 448 312.320312 448 301.921875 L 448 283.199219 L 427.519531 283.199219 C 409.601562 283.199219 406.558594 283.519531 404.320312 286.078125 Z M 412.800781 292 C 412.800781 293.28125 411.679688 294.398438 410.398438 294.398438 C 409.121094 294.398438 408 293.28125 408 292 C 408 290.71875 409.121094 289.601562 410.398438 289.601562 C 411.679688 289.601562 412.800781 290.71875 412.800781 292 Z M 444.800781 292 C 444.800781 293.921875 442.078125 294.398438 430.398438 294.398438 C 418.71875 294.398438 416 293.921875 416 292 C 416 290.078125 418.71875 289.601562 430.398438 289.601562 C 442.078125 289.601562 444.800781 290.078125 444.800781 292 Z M 412.800781 300 C 412.800781 301.28125 411.679688 302.398438 410.398438 302.398438 C 409.121094 302.398438 408 301.28125 408 300 C 408 298.71875 409.121094 297.601562 410.398438 297.601562 C 411.679688 297.601562 412.800781 298.71875 412.800781 300 Z M 444.800781 300 C 444.800781 301.921875 442.078125 302.398438 430.398438 302.398438 C 418.71875 302.398438 416 301.921875 416 300 C 416 298.078125 418.71875 297.601562 430.398438 297.601562 C 442.078125 297.601562 444.800781 298.078125 444.800781 300 Z M 412.800781 308 C 412.800781 309.28125 411.679688 310.398438 410.398438 310.398438 C 409.121094 310.398438 408 309.28125 408 308 C 408 306.71875 409.121094 305.601562 410.398438 305.601562 C 411.679688 305.601562 412.800781 306.71875 412.800781 308 Z M 444.800781 308 C 444.800781 309.921875 442.078125 310.398438 430.398438 310.398438 C 418.71875 310.398438 416 309.921875 416 308 C 416 306.078125 418.71875 305.601562 430.398438 305.601562 C 442.078125 305.601562 444.800781 306.078125 444.800781 308 Z M 412.800781 316 C 412.800781 317.28125 411.679688 318.398438 410.398438 318.398438 C 409.121094 318.398438 408 317.28125 408 316 C 408 314.71875 409.121094 313.601562 410.398438 313.601562 C 411.679688 313.601562 412.800781 314.71875 412.800781 316 Z M 444.800781 316 C 444.800781 317.921875 442.078125 318.398438 430.398438 318.398438 C 418.71875 318.398438 416 317.921875 416 316 C 416 314.078125 418.71875 313.601562 430.398438 313.601562 C 442.078125 313.601562 444.800781 314.078125 444.800781 316 Z M 412.800781 324 C 412.800781 325.28125 411.679688 326.398438 410.398438 326.398438 C 409.121094 326.398438 408 325.28125 408 324 C 408 322.71875 409.121094 321.601562 410.398438 321.601562 C 411.679688 321.601562 412.800781 322.71875 412.800781 324 Z M 412.800781 332 C 412.800781 333.28125 411.679688 334.398438 410.398438 334.398438 C 409.121094 334.398438 408 333.28125 408 332 C 408 330.71875 409.121094 329.601562 410.398438 329.601562 C 411.679688 329.601562 412.800781 330.71875 412.800781 332 Z M 412.800781 332 "/>
<path style=" stroke:none;fill-rule:nonzero;fill:rgb(0%,48.235294%,100%);fill-opacity:1;" d="M 404.800781 348.800781 C 403.039062 350.558594 401.601562 352.640625 401.601562 353.601562 C 401.601562 354.558594 408 355.199219 417.601562 355.199219 C 430.558594 355.199219 435.039062 354.558594 440 352 C 451.039062 346.398438 449.441406 345.601562 428.160156 345.601562 C 410.078125 345.601562 407.679688 345.921875 404.800781 348.800781 Z M 404.800781 348.800781 "/>
<path style=" stroke:none;fill-rule:nonzero;fill:rgb(0%,48.235294%,100%);fill-opacity:1;" d="M 401.601562 363.679688 C 401.601562 369.601562 404.640625 371.199219 416.480469 371.199219 C 426.238281 371.199219 427.359375 370.878906 425.601562 368.800781 C 424.480469 367.519531 424 364.960938 424.480469 363.199219 C 425.28125 360.160156 424.480469 360 413.441406 360 C 402.078125 360 401.601562 360.160156 401.601562 363.679688 Z M 401.601562 363.679688 "/>
<path style=" stroke:none;fill-rule:nonzero;fill:rgb(0%,48.235294%,100%);fill-opacity:1;" d="M 436.320312 363.199219 C 436.800781 364.960938 436.320312 367.519531 435.199219 368.800781 C 433.441406 370.878906 434.558594 371.199219 444.320312 371.199219 C 456.160156 371.199219 459.199219 369.601562 459.199219 363.679688 C 459.199219 360.160156 458.71875 360 447.359375 360 C 436.320312 360 435.519531 360.160156 436.320312 363.199219 Z M 436.320312 363.199219 "/>
<path style=" stroke:none;fill-rule:nonzero;fill:rgb(0%,48.235294%,100%);fill-opacity:1;" d="M 304.800781 351.199219 C 307.519531 358.878906 307.519531 360.480469 304.320312 364.800781 C 301.441406 368.640625 301.28125 369.441406 303.359375 370.238281 C 307.039062 371.679688 307.199219 371.519531 307.199219 367.839844 C 307.199219 366.078125 308 363.199219 308.960938 361.441406 C 310.238281 358.878906 309.921875 357.121094 307.199219 353.121094 C 305.28125 350.238281 304.160156 349.441406 304.800781 351.199219 Z M 304.800781 351.199219 "/>
<path style=" stroke:none;fill-rule:nonzero;fill:rgb(0%,48.235294%,100%);fill-opacity:1;" d="M 512.640625 352.640625 C 511.039062 356.800781 513.28125 360.320312 517.121094 359.679688 C 519.839844 359.359375 520.800781 358.078125 520.800781 355.199219 C 520.800781 352.320312 519.839844 351.039062 517.121094 350.71875 C 515.039062 350.398438 513.121094 351.199219 512.640625 352.640625 Z M 512.640625 352.640625 "/>
<path style=" stroke:none;fill-rule:nonzero;fill:rgb(0%,48.235294%,100%);fill-opacity:1;" d="M 540.800781 359.199219 C 537.921875 362.558594 540 366.71875 544.320312 366.078125 C 548.480469 365.601562 550.238281 360.320312 546.878906 358.238281 C 544 356.320312 543.039062 356.480469 540.800781 359.199219 Z M 540.800781 359.199219 "/>
<path style=" stroke:none;fill-rule:nonzero;fill:rgb(0%,48.235294%,100%);fill-opacity:1;" d="M 295.519531 359.359375 C 293.28125 361.761719 294.558594 363.199219 298.878906 363.199219 C 302.398438 363.199219 302.71875 363.519531 300.800781 364.960938 C 298.71875 366.398438 298.71875 366.558594 300.800781 365.921875 C 304.480469 364.960938 303.839844 359.359375 300 358.71875 C 298.078125 358.398438 296.160156 358.71875 295.519531 359.359375 Z M 295.519531 359.359375 "/>
<path style=" stroke:none;fill-rule:nonzero;fill:rgb(0%,48.235294%,100%);fill-opacity:1;" d="M 264.320312 361.921875 C 261.441406 364.800781 261.921875 366.398438 266.078125 366.558594 C 269.441406 366.558594 269.441406 366.71875 266.398438 368 C 264 368.960938 264.640625 369.121094 269.121094 369.121094 C 272.480469 368.960938 274.558594 368.640625 273.921875 368.160156 C 273.28125 367.519531 272 365.761719 271.039062 364.160156 C 268.960938 360.160156 266.71875 359.519531 264.320312 361.921875 Z M 264.320312 361.921875 "/>
<path style=" stroke:none;fill-rule:nonzero;fill:rgb(0%,48.235294%,100%);fill-opacity:1;" d="M 533.921875 363.199219 C 531.679688 365.921875 531.519531 366.398438 533.601562 366.398438 C 535.039062 366.398438 536.480469 365.28125 537.121094 364 C 538.558594 360.160156 536.960938 359.679688 533.921875 363.199219 Z M 533.921875 363.199219 "/>
<path style=" stroke:none;fill-rule:nonzero;fill:rgb(0%,48.235294%,100%);fill-opacity:1;" d="M 290.878906 365.28125 C 289.921875 370.398438 291.519531 372.160156 294.398438 368.800781 C 295.679688 367.359375 295.679688 366.398438 294.71875 366.398438 C 293.761719 366.398438 292.800781 365.121094 292.480469 363.519531 C 292 361.601562 291.519531 362.238281 290.878906 365.28125 Z M 290.878906 365.28125 "/>
<path style=" stroke:none;fill-rule:nonzero;fill:rgb(0%,48.235294%,100%);fill-opacity:1;" d="M 505.761719 366.558594 C 502.71875 371.519531 502.878906 375.679688 506.238281 377.921875 C 509.121094 380 512.320312 379.359375 511.519531 376.960938 C 510.878906 375.359375 512.320312 374.398438 516.160156 373.761719 C 519.199219 373.121094 521.601562 371.839844 521.601562 370.878906 C 521.601562 369.921875 520 369.601562 517.601562 370.238281 C 513.921875 371.199219 513.441406 370.878906 513.921875 366.878906 C 514.558594 360.320312 509.601562 360.160156 505.761719 366.558594 Z M 513.601562 364.480469 C 513.601562 365.121094 512.160156 365.761719 510.558594 365.761719 C 508.800781 365.761719 507.839844 365.121094 508.160156 364.480469 C 508.640625 363.839844 510.078125 363.199219 511.359375 363.199219 C 512.640625 363.199219 513.601562 363.839844 513.601562 364.480469 Z M 509.921875 371.519531 C 509.441406 372.800781 508.960938 372.320312 508.960938 370.558594 C 508.800781 368.800781 509.28125 367.839844 509.761719 368.480469 C 510.238281 368.960938 510.398438 370.398438 509.921875 371.519531 Z M 509.921875 371.519531 "/>
<path style=" stroke:none;fill-rule:nonzero;fill:rgb(0%,48.235294%,100%);fill-opacity:1;" d="M 314.238281 368.800781 C 311.679688 373.761719 311.519531 374.71875 313.601562 376 C 314.878906 376.800781 316.640625 376.800781 317.761719 376 C 318.71875 375.039062 319.839844 374.71875 320.320312 375.199219 C 320.800781 375.679688 321.121094 373.441406 320.960938 370.238281 C 320.800781 362.398438 318.078125 361.761719 314.238281 368.800781 Z M 314.238281 368.800781 "/>
<path style=" stroke:none;fill-rule:nonzero;fill:rgb(0%,48.235294%,100%);fill-opacity:1;" d="M 258.398438 370.078125 C 258.878906 371.679688 259.199219 373.761719 259.199219 374.558594 C 259.199219 376.480469 263.519531 376.480469 264.800781 374.398438 C 265.28125 373.601562 264.800781 373.28125 263.519531 373.761719 C 262.238281 374.238281 260.480469 372.960938 259.359375 370.878906 C 258.398438 368.800781 257.921875 368.480469 258.398438 370.078125 Z M 258.398438 370.078125 "/>
<path style=" stroke:none;fill-rule:nonzero;fill:rgb(0%,48.235294%,100%);fill-opacity:1;" d="M 528.800781 369.601562 C 528.320312 370.398438 528.640625 371.199219 529.761719 371.199219 C 531.039062 371.199219 531.039062 371.839844 529.601562 373.601562 C 527.199219 376.480469 528.800781 384 531.839844 384 C 535.199219 384 536 392 533.28125 396.320312 C 531.039062 399.679688 531.039062 400 533.441406 400 C 534.71875 400 537.441406 397.761719 539.519531 395.199219 C 541.441406 392.480469 544.320312 390.398438 545.921875 390.398438 C 550.238281 390.398438 549.441406 388.480469 543.199219 383.519531 C 540.160156 381.121094 537.601562 378.238281 537.601562 377.28125 C 537.601562 376.320312 539.039062 377.441406 540.960938 379.839844 C 542.71875 382.078125 544.960938 384 545.921875 384 C 547.039062 384 546.078125 382.238281 544.160156 380.160156 C 541.441406 377.28125 540.640625 375.039062 541.441406 372.160156 C 542.398438 368.160156 542.078125 368 536.160156 368 C 532.640625 368 529.28125 368.640625 528.800781 369.601562 Z M 528.800781 369.601562 "/>
<path style=" stroke:none;fill-rule:nonzero;fill:rgb(0%,48.235294%,100%);fill-opacity:1;" d="M 297.921875 373.601562 C 298.238281 376 297.28125 378.238281 295.519531 379.519531 C 293.121094 381.28125 292.960938 382.398438 294.558594 386.878906 C 296.640625 392.960938 300.160156 392.800781 299.519531 386.71875 C 299.199219 383.679688 299.679688 382.398438 301.441406 382.398438 C 303.039062 382.398438 303.519531 383.359375 303.039062 384.800781 C 301.601562 388.320312 310.238281 400.800781 312.320312 398.71875 C 313.441406 397.601562 312.960938 395.679688 310.71875 392.480469 C 308.160156 388.960938 307.679688 386.398438 308.320312 380.320312 C 309.121094 373.441406 308.960938 372.800781 305.921875 372.800781 C 304 372.800781 302.078125 372 301.601562 371.199219 C 299.679688 368.160156 297.441406 369.601562 297.921875 373.601562 Z M 297.921875 373.601562 "/>
<path style=" stroke:none;fill-rule:nonzero;fill:rgb(0%,48.235294%,100%);fill-opacity:1;" d="M 267.199219 374.238281 C 266.398438 376 265.601562 378.558594 265.601562 380 C 265.601562 381.441406 264.800781 384.160156 263.679688 386.078125 C 261.601562 389.921875 261.441406 390.558594 259.839844 397.121094 C 259.199219 399.839844 259.519531 401.601562 260.480469 401.601562 C 262.558594 401.601562 264.640625 395.839844 263.359375 393.761719 C 262.878906 393.121094 265.761719 392 269.601562 391.679688 C 273.601562 391.199219 277.921875 389.921875 279.199219 388.800781 C 281.441406 386.878906 281.121094 386.078125 276.800781 381.601562 C 274.238281 378.878906 272 375.359375 272 373.921875 C 272 370.238281 269.28125 370.398438 267.199219 374.238281 Z M 267.199219 374.238281 "/>
<path style=" stroke:none;fill-rule:nonzero;fill:rgb(0%,48.235294%,100%);fill-opacity:1;" d="M 275.679688 372.960938 C 277.121094 373.921875 278.078125 375.199219 277.601562 376.160156 C 277.121094 376.960938 277.441406 378.878906 278.398438 380.320312 C 280 382.878906 280.160156 382.71875 279.359375 379.519531 C 278.71875 376.480469 279.039062 376.160156 280.960938 377.761719 C 282.238281 378.71875 283.199219 378.878906 283.199219 378.078125 C 283.199219 375.839844 277.761719 371.199219 275.039062 371.199219 C 273.441406 371.359375 273.601562 371.839844 275.679688 372.960938 Z M 275.679688 372.960938 "/>
<path style=" stroke:none;fill-rule:nonzero;fill:rgb(0%,48.235294%,100%);fill-opacity:1;" d="M 498.398438 380.320312 C 497.921875 381.761719 497.761719 383.039062 497.921875 383.199219 C 498.238281 383.359375 499.839844 384.320312 501.601562 385.28125 C 504.640625 387.039062 504.640625 387.039062 501.761719 387.199219 C 500 387.199219 499.039062 387.679688 499.679688 388.160156 C 501.601562 390.078125 510.078125 386.878906 511.839844 383.519531 L 513.601562 380 L 512.640625 383.519531 C 512.160156 385.601562 512.480469 387.199219 513.28125 387.199219 C 514.078125 387.199219 515.199219 390.078125 515.839844 393.601562 C 516.480469 397.761719 517.601562 400 519.199219 400 C 521.121094 400 521.441406 398.558594 520.640625 393.121094 C 519.519531 386.398438 514.238281 378.558594 511.839844 380.160156 C 511.039062 380.640625 508 380.320312 504.960938 379.519531 C 500.480469 378.238281 499.199219 378.398438 498.398438 380.320312 Z M 498.398438 380.320312 "/>
<path style=" stroke:none;fill-rule:nonzero;fill:rgb(0%,48.235294%,100%);fill-opacity:1;" d="M 510.398438 390.078125 C 510.398438 390.71875 508.800781 392 506.878906 392.800781 C 502.878906 394.558594 500.960938 400 504.160156 400 C 506.078125 400 508.960938 396.800781 512.160156 391.519531 C 513.121094 389.761719 513.121094 388.800781 512 388.800781 C 511.199219 388.800781 510.398438 389.28125 510.398438 390.078125 Z M 510.398438 390.078125 "/>
<path style=" stroke:none;fill-rule:nonzero;fill:rgb(0%,48.235294%,100%);fill-opacity:1;" d="M 277.761719 391.839844 C 277.28125 392.640625 278.558594 394.398438 280.800781 395.839844 C 284.640625 398.398438 288 396.800781 284.320312 394.078125 C 280.480469 391.039062 278.558594 390.398438 277.761719 391.839844 Z M 277.761719 391.839844 "/>
<path style=" stroke:none;fill-rule:nonzero;fill:rgb(0%,48.235294%,100%);fill-opacity:1;" d="M 544 396 C 544 398.238281 544.800781 400 545.601562 400 C 546.558594 400 547.199219 398.238281 547.199219 396 C 547.199219 393.761719 546.558594 392 545.601562 392 C 544.800781 392 544 393.761719 544 396 Z M 544 396 "/>
<path style=" stroke:none;fill-rule:nonzero;fill:rgb(0%,48.235294%,100%);fill-opacity:1;" d="M 330.398438 425.441406 C 322.558594 428.800781 318.878906 437.28125 321.601562 445.601562 C 323.679688 451.679688 327.679688 454.558594 338.878906 457.441406 C 344.320312 459.039062 345.601562 460 345.601562 463.039062 C 345.601562 469.761719 338.398438 470.71875 331.519531 464.800781 C 326.078125 460.160156 322.078125 460.800781 320.640625 466.558594 C 318.238281 476 335.039062 483.359375 347.679688 478.558594 C 354.878906 475.839844 358.398438 470.398438 358.398438 462.398438 C 358.398438 453.121094 355.679688 450.398438 342.878906 446.558594 C 332.800781 443.519531 330.238281 439.839844 336.160156 436.800781 C 338.878906 435.199219 340.640625 435.519531 345.121094 437.921875 C 350.558594 440.800781 350.71875 440.800781 352.960938 437.761719 C 356 433.441406 355.839844 431.359375 352 428 C 348.480469 424.800781 335.359375 423.199219 330.398438 425.441406 Z M 330.398438 425.441406 "/>
<path style=" stroke:none;fill-rule:nonzero;fill:rgb(0%,48.235294%,100%);fill-opacity:1;" d="M 373.601562 425.921875 C 368 428.960938 364.800781 434.238281 364.800781 440.320312 C 364.800781 448.160156 369.761719 453.441406 380.480469 456.800781 C 389.601562 459.679688 392 462.558594 388.800781 466.398438 C 385.921875 469.761719 382.238281 469.441406 376.160156 464.800781 C 371.839844 461.761719 370.078125 461.28125 367.679688 462.558594 C 362.398438 465.441406 362.398438 468.800781 367.679688 474.078125 C 374.558594 480.960938 387.039062 482.078125 395.199219 476.480469 C 407.199219 468.320312 405.121094 451.519531 391.679688 448 C 380.160156 444.800781 377.601562 443.359375 377.601562 440.160156 C 377.601562 435.679688 383.039062 434.558594 388.800781 437.921875 C 393.441406 440.640625 393.761719 440.640625 396.960938 437.28125 C 401.441406 432.960938 400 429.28125 392.800781 426.398438 C 386.238281 423.519531 378.078125 423.359375 373.601562 425.921875 Z M 373.601562 425.921875 "/>
<path style=" stroke:none;fill-rule:nonzero;fill:rgb(0%,48.235294%,100%);fill-opacity:1;" d="M 137.601562 452 L 137.601562 478.398438 L 141.441406 479.359375 C 148 480.960938 148.800781 479.039062 148.800781 463.839844 C 148.800781 455.679688 149.441406 449.601562 150.238281 449.921875 C 151.039062 450.078125 156.960938 457.121094 163.199219 465.28125 C 173.121094 478.238281 175.359375 480.160156 179.039062 479.679688 L 183.199219 479.199219 L 183.679688 452.320312 L 184 425.601562 L 172.800781 425.601562 L 172.800781 440.800781 C 172.800781 449.121094 172.320312 456 171.679688 456 C 170.878906 456 165.441406 449.121094 159.199219 440.800781 C 149.121094 426.878906 147.679688 425.601562 142.878906 425.601562 L 137.601562 425.601562 Z M 137.601562 452 "/>
<path style=" stroke:none;fill-rule:nonzero;fill:rgb(0%,48.235294%,100%);fill-opacity:1;" d="M 211.359375 428.320312 C 204.160156 431.839844 197.121094 441.921875 196 450.238281 C 194.878906 457.601562 199.039062 471.199219 202.078125 469.28125 C 203.039062 468.640625 203.199219 469.121094 202.398438 470.238281 C 200.640625 473.441406 207.679688 479.679688 216.320312 482.558594 C 226.878906 485.921875 236 484.480469 243.679688 478.238281 C 251.519531 471.679688 254.878906 465.121094 254.878906 455.199219 C 255.039062 445.28125 250.878906 436.320312 243.519531 430.71875 C 236.320312 425.28125 219.839844 424 211.359375 428.320312 Z M 238.398438 447.679688 L 244 450.078125 L 239.679688 451.679688 C 236.160156 452.960938 235.199219 454.558594 235.199219 457.921875 C 235.199219 463.359375 229.28125 466.398438 221.28125 464.800781 C 214.71875 463.679688 213.441406 464.160156 213.921875 467.519531 C 214.238281 469.441406 213.28125 470.398438 211.199219 470.398438 C 208.640625 470.398438 208.160156 469.441406 208.640625 465.121094 C 208.960938 462.398438 209.28125 458.238281 209.441406 456 C 209.601562 451.679688 212.160156 453.28125 213.121094 458.398438 C 213.601562 460.640625 214.078125 460.160156 214.558594 456.320312 C 215.199219 453.121094 214.71875 451.199219 213.761719 451.359375 C 203.839844 452.480469 204.480469 449.28125 214.878906 446.078125 C 223.679688 443.199219 229.28125 443.679688 238.398438 447.679688 Z M 238.398438 447.679688 "/>
<path style=" stroke:none;fill-rule:nonzero;fill:rgb(0%,48.235294%,100%);fill-opacity:1;" d="M 219.679688 456.320312 C 222.238281 457.921875 229.121094 457.921875 231.679688 456.320312 C 232.800781 455.519531 230.398438 455.039062 225.761719 455.039062 C 221.441406 455.199219 218.71875 455.679688 219.679688 456.320312 Z M 219.679688 456.320312 "/>
<path style=" stroke:none;fill-rule:nonzero;fill:rgb(0%,48.235294%,100%);fill-opacity:1;" d="M 268.160156 428.160156 C 266.558594 432.320312 267.039062 454.71875 268.960938 461.601562 C 269.921875 465.121094 273.441406 470.558594 276.800781 473.921875 C 282.078125 479.359375 283.679688 480 290.558594 480 C 299.839844 480 307.519531 475.839844 312 468.480469 C 314.71875 464 315.199219 460.320312 315.199219 444.320312 L 315.199219 425.601562 L 304 425.601562 L 304 440.320312 C 304 459.519531 301.121094 466.238281 292.640625 466.878906 C 283.039062 467.679688 280.960938 463.679688 280.320312 443.039062 L 279.679688 425.601562 L 274.398438 425.601562 C 271.039062 425.601562 268.800781 426.558594 268.160156 428.160156 Z M 268.160156 428.160156 "/>
<path style=" stroke:none;fill-rule:nonzero;fill:rgb(0%,48.235294%,100%);fill-opacity:1;" d="M 409.601562 451.839844 C 409.601562 474.71875 409.921875 478.238281 412.160156 479.039062 C 418.398438 481.441406 422.398438 476.960938 422.398438 467.519531 C 422.398438 464.480469 423.199219 464 428 464 C 433.121094 464 433.921875 464.640625 437.28125 471.519531 C 441.121094 479.839844 444 481.28125 448.800781 477.761719 C 451.839844 475.519531 451.839844 475.359375 448.960938 467.359375 C 446.238281 459.679688 446.238281 458.71875 448.640625 453.761719 C 451.839844 446.878906 451.839844 441.121094 448.800781 435.199219 C 444.960938 427.839844 438.878906 425.601562 423.199219 425.601562 L 409.601562 425.601562 Z M 433.28125 437.761719 C 437.441406 439.039062 439.519531 445.441406 436.800781 448.800781 C 435.679688 450.238281 432.160156 451.199219 428.640625 451.199219 L 422.398438 451.199219 L 422.398438 444 C 422.398438 437.601562 422.71875 436.800781 426.078125 436.800781 C 428 436.800781 431.199219 437.28125 433.28125 437.761719 Z M 433.28125 437.761719 "/>
<path style=" stroke:none;fill-rule:nonzero;fill:rgb(0%,48.235294%,100%);fill-opacity:1;" d="M 478.238281 428.800781 C 465.441406 435.519531 459.039062 448.960938 462.398438 461.921875 C 464.800781 471.679688 468 476.160156 476 480.800781 C 490.078125 489.121094 508.800781 484.320312 516.640625 470.398438 C 520.320312 463.679688 521.121094 451.199219 518.238281 443.679688 C 512.640625 428.800781 492.320312 421.28125 478.238281 428.800781 Z M 502.71875 445.121094 C 504.320312 446.558594 505.441406 450.878906 506.078125 457.921875 L 506.878906 468.800781 L 491.039062 468.800781 C 476.640625 468.800781 471.039062 467.359375 475.199219 464.800781 C 476 464.320312 476.800781 460 476.800781 455.199219 C 476.800781 448.640625 477.441406 446.238281 479.679688 444.960938 C 483.519531 442.558594 499.679688 442.878906 502.71875 445.121094 Z M 502.71875 445.121094 "/>
<path style=" stroke:none;fill-rule:nonzero;fill:rgb(0%,48.235294%,100%);fill-opacity:1;" d="M 533.761719 428.160156 C 533.28125 429.601562 532.800781 440.960938 532.800781 453.601562 C 532.800781 478.558594 533.761719 481.28125 541.601562 479.359375 C 545.441406 478.398438 545.601562 477.921875 545.601562 464 C 545.601562 456 546.078125 449.601562 546.878906 449.601562 C 547.519531 449.761719 552.640625 456.160156 558.398438 464 C 569.121094 478.71875 572 480.960938 577.601562 479.199219 C 580.800781 478.238281 580.800781 477.121094 580.480469 452.320312 L 580 426.398438 L 574.878906 425.921875 C 568.800781 425.28125 568.160156 426.71875 567.679688 444.480469 L 567.199219 456.160156 L 556 440.960938 C 546.078125 427.359375 544.320312 425.761719 539.839844 425.601562 C 536.640625 425.601562 534.398438 426.558594 533.761719 428.160156 Z M 533.761719 428.160156 "/>
<path style=" stroke:none;fill-rule:nonzero;fill:rgb(0%,48.235294%,100%);fill-opacity:1;" d="M 588.160156 428.160156 C 587.679688 429.601562 587.199219 440.640625 587.199219 452.800781 C 587.199219 470.878906 587.679688 475.519531 589.761719 477.441406 C 592.480469 480.320312 593.601562 480.480469 597.441406 479.039062 C 599.199219 478.398438 600 476 600 471.039062 L 600 464 L 607.679688 464 C 621.601562 464 631.839844 453.28125 629.601562 441.121094 C 628.480469 435.199219 626.398438 432.160156 620.800781 428.320312 C 615.359375 424.480469 589.601562 424.320312 588.160156 428.160156 Z M 614.078125 439.359375 C 621.441406 444.480469 617.441406 451.199219 606.878906 451.199219 L 600 451.199219 L 600 445.121094 C 600 441.761719 600.480469 438.398438 601.121094 437.921875 C 603.039062 436 610.398438 436.800781 614.078125 439.359375 Z M 614.078125 439.359375 "/>
<path style=" stroke:none;fill-rule:nonzero;fill:rgb(0%,48.235294%,100%);fill-opacity:1;" d="M 636.320312 426.71875 C 634.238281 428.640625 635.039062 476 637.121094 478.078125 C 638.398438 479.359375 645.121094 480 656.960938 480 C 676.640625 480 679.679688 478.71875 677.761719 471.199219 C 676.800781 467.359375 676.320312 467.199219 662.398438 467.199219 C 648.160156 467.199219 648 467.199219 648 463.199219 C 648 459.519531 648.480469 459.199219 656.480469 459.199219 C 667.839844 459.199219 669.601562 457.761719 668.960938 449.121094 C 668.800781 446.878906 667.199219 446.398438 658.238281 446.398438 L 647.839844 446.398438 L 648.320312 441.921875 C 648.800781 437.601562 648.800781 437.601562 662.71875 437.121094 C 676 436.640625 676.800781 436.480469 677.761719 432.800781 C 678.238281 430.71875 678.238281 428.160156 677.601562 427.359375 C 676.480469 425.441406 638.078125 424.800781 636.320312 426.71875 Z M 636.320312 426.71875 "/>
</g>
</svg>
